<?xml version="1.0" encoding="iso-8859-1"?>
<!-- Generator: Adobe Illustrator 24.0.0, SVG Export Plug-In . SVG Version: 6.00 Build 0)  -->
<svg version="1.1" id="Calque_1" xmlns="http://www.w3.org/2000/svg" xmlns:xlink="http://www.w3.org/1999/xlink" x="0px" y="0px"
	 viewBox="0 0 1127.943 1040.922" style="enable-background:new 0 0 1127.943 1040.922;" xml:space="preserve">
<title>Echelle Carré Bleu_A</title>
<g id="Velo_">
	<g id="V&#xE9;lo_2">
		<path style="fill:none;stroke:#FAB600;stroke-width:1.5;stroke-miterlimit:10;" d="M853.031,553.15l-3,7l-8.75-3.25l-3.75-2.75
			l-16.21-16.25c-0.21-0.8-0.43-1.6-0.65-2.4c-0.078-2.712,0.68-5.383,2.17-7.65c1.7-2.42,3.08-2.27,4.11-4.36
			c2.21-4.47-1.54-10.31-2-10.92c-1.421-2.118-3.359-3.839-5.63-5L799.4,521.99l-10.39-3.5c-0.2-2-0.39-4-0.59-6l-3.77-3.55
			l-3.64-3.23l-1.09-1.89l-1.51-2.42l-1.46-1.81l-1.47-0.91l-4-0.87l-4.89-0.9l-2.28-0.74c-1.395,1.33-3.263,2.05-5.19,2
			c-0.72-0.07-0.84-0.25-2.87-1.09c-4.22-1.76-4.23-1.23-6.55-2.44c-1.047-0.602-2.166-1.069-3.33-1.39
			c-2.84-0.7-3.44-0.17-6.09-0.9c-1.42-0.39-1.29-0.55-2.52-0.82c-1.591-0.436-3.266-0.463-4.87-0.08
			c-0.349,0.109-0.684,0.256-1,0.44c-0.415,0.24-0.815,0.504-1.2,0.79c-0.399,0.285-0.777,0.599-1.13,0.94
			c-0.52,0.5-0.79,0.73-0.85,0.78c-0.52,0.42-3.17-1.27-11.92-9.7"/>
		<path style="fill:none;stroke:#FAB600;stroke-width:1.5;stroke-miterlimit:10;" d="M492.9,466.65
			c2.16,1.447,4.317,2.901,6.47,4.36l-0.4,1.27c0.351,0.373,0.74,0.708,1.16,1c0.559,0.324,1.137,0.614,1.73,0.87
			c0.733,0.405,1.406,0.91,2,1.5l8.16,1.31l2.22,1.23l5.85,0.41l3.24,2.3l1.55-1.89l8.44-1.06l3.33-0.9l3.25-1.72
			c1.196-1.468,2.589-2.764,4.14-3.85c1.358-0.922,2.797-1.719,4.3-2.38c1.11-0.51,2.06-0.88,2.76-1.14l2,0.82l1.79-1.07l3.17,0.33
			l4.38,1.55l2.84-1.14c0.44,0.48,1,1.07,1.63,1.72c1.32,1.33,1.69,1.53,2.11,1.55c0.64,0,0.84-0.38,1.7-0.73
			c1.037-0.256,2.112-0.313,3.17-0.17c1.39,0.003,2.776,0.14,4.14,0.41c0.45,0.1,0.36,0.1,2,0.58s1.85,0.5,4.79,1.31l2.68,0.73
			l2.53,2.24l1.5-2.67l4.5,0.92l5.5-3.59l12.5-10.66l3,4.5l-1.27,3.16l0.18,1c0.991-0.202,1.992-0.345,3-0.43
			c0.246,0.015,0.494,0.015,0.74,0H620c0.55-0.097,1.083-0.276,1.58-0.53c1.57-0.74,2.19-0.26,3.41-0.86
			c1.38-0.68,1.1-1.54,2.44-2.54c0.88-0.66,2.08-0.81,4.46-1.1c1.907-0.328,3.854-0.359,5.77-0.09
			c0.744,0.201,1.503,0.338,2.27,0.41c1.06,0,3,0.09,4.31-1.14c0.58-0.56,0.87-1.25,1.7-1.44c0.13,0,0.65-0.14,0.89,0.13
			c0.07,0.07,0.19,0.26,0,1c-0.24,1.16-0.72,1.53-0.52,2c0.1,0.22,0.34,0.34,0.65,0.49c0.252,0.161,0.557,0.218,0.85,0.16
			c0.31-0.1,0.33-0.36,0.53-0.49c0.52-0.35,1.5,0.68,3,1.51c1.68,0.93,2.81,1,2.88,1.6c-0.023,0.365-0.215,0.698-0.52,0.9
			l0.101,0.02l4.33,2c0.664,0.222,1.36,0.337,2.06,0.34c1.11,0,1.41-0.35,2.11,0s0.68,0.97,1.26,1.15s1.1-0.29,1.58-0.13
			s0.55,0.55,1,0.9c0.709,0.415,1.548,0.547,2.35,0.37c2.3-0.1,3.16,2.21,6.4,3.61c1.293,0.549,2.676,0.854,4.08,0.9
			c3.05-0.79,4.68-0.26,5.68,0.41c0.463,0.397,0.951,0.764,1.46,1.1c1.34,0.77,2.31,0.67,3.94,0.9c2.89,0.41,3.04,1.17,5.89,1.52
			c1.048,0.126,2.107,0.153,3.16,0.08c1.49,0.254,2.92,0.779,4.22,1.55c0.791,0.471,1.526,1.032,2.19,1.67l1,2.45l0.3,0.9v0.31
			l0.26,0.43l0.37,0.41l4.88-0.4"/>
		<path style="fill:none;stroke:#FAB600;stroke-width:1.5;stroke-miterlimit:10;" d="M712.321,489.06
			c0.205-1.876,0.286-3.763,0.24-5.65c-0.09-4.73-0.29-4.13-0.16-5.15c0.41-3.31,1.71-3.37,1.78-6c0.06-2.08-1.07-2.66-1.29-6.06
			c-0.186-0.88-0.033-1.798,0.43-2.57c0.7-0.91,1.93-1,3.46-1.09s3-0.19,4.12,0.87c0.365,0.345,0.651,0.764,0.84,1.23
			c0.82,2.13-1.93,3.51-2.28,7c-0.43,4.24,0.91,5.51-0.4,7.86c-0.71,1.28-1.34,1.33-2.2,3c-0.655,1.391-1.038,2.895-1.13,4.43
			c-0.296,2.8-0.38,5.618-0.25,8.43c0.24,5.83,0.39,8.77,1.79,9.83c0.859,0.462,1.523,1.218,1.87,2.13c0.13,0.5,0.23,1.45-0.25,1.8
			c-0.69,0.5-1.66-1-4.3-1.48c-0.45-0.021-0.88-0.194-1.22-0.49c-0.435-0.68-0.552-1.517-0.32-2.29
			c0.197-0.853,0.496-1.679,0.89-2.46c0.79-2.49-2.32-4.06-2.6-8C711.2,492.64,711.841,493.07,712.321,489.06z"/>
		<path style="fill:none;stroke:#FAB600;stroke-width:1.5;stroke-miterlimit:10;" d="M507.321,476.54
			c-1.51-5.44-2.32-5.75-2.17-8.08c0.093-1.171,0.287-2.332,0.58-3.47c0.32-1.29,0.59-1.86,0.81-3.19
			c0.185-0.806,0.239-1.637,0.16-2.46c-0.344-1.783-1.361-3.366-2.84-4.42c-0.709-0.544-1.508-0.96-2.36-1.23l-1.62-3.61
			c0.32-0.73,0.65-1.47,1-2.21c-0.963-1.059-1.858-2.178-2.68-3.35c-0.93-1.34-1.35-2.16-2.68-4.1c-0.66-1-1.23-1.77-1.62-2.29
			c0.25-0.36,1.65-2.44,0.89-4.42c-0.402-0.874-1.048-1.614-1.86-2.13c-1.61-1.24-2.55-1.08-3.82-2
			c-1.173-0.878-2.029-2.113-2.44-3.52l2.28-7.21c-1.506-1.986-2.483-4.323-2.84-6.79c-0.08-1.594-0.554-3.144-1.38-4.51
			c-0.409-0.611-0.904-1.16-1.47-1.63l-0.61-0.33l-4.54,1.55l-4.39-3.84c-0.186-1.069-0.253-2.156-0.2-3.24
			c0.08-1.58,0.13-2.49,0.77-3.11c0.49-0.47,0.73-0.21,3-0.82c0.959-0.17,1.88-0.508,2.72-1c0.427-0.451,0.955-0.793,1.54-1
			l0.89-0.2l2.88-5.11l-3.14-3.17l17.54-12.23l4.87-1.42c-0.1-1.222-0.733-2.337-1.73-3.05c-3.37-1.86-10.18,4.9-11.58,3.49
			c-0.61-0.61,0.42-2.14-0.59-4.45c-0.212-0.413-0.402-0.837-0.57-1.27c-0.282-1.025-0.39-2.089-0.32-3.15c-0.15-2-2-2.44-3.83-5.11
			c-0.947-1.355-1.645-2.869-2.06-4.47l-2.27,0.76c-0.711-1.204-1.336-2.457-1.87-3.75c-0.459-1.124-0.847-2.277-1.16-3.45
			l-8.36-5.73c-1.08-2.153-2.163-4.3-3.25-6.44c-0.44,0.23-1.47,0.71-1.83,0.34c-0.23-0.22-0.21-0.76-0.17-1.78
			c0.022-0.199,0.022-0.401,0-0.6c-0.055-0.268-0.146-0.527-0.27-0.77c-0.2-0.48,0-0.78,0-1.85c0.048-0.502,0.048-1.008,0-1.51
			c-0.11-0.87-0.51-1.17-1.07-2.15c-0.242-0.436-0.43-0.899-0.56-1.38c-0.398-0.754-0.703-1.553-0.91-2.38
			c0-1.22,1.68-1.69,2.55-2.88s1.14-3.11-0.75-7.25"/>
	</g>
</g>
</svg>
