<?xml version="1.0" encoding="utf-8"?>
<!-- Generator: Adobe Illustrator 24.0.0, SVG Export Plug-In . SVG Version: 6.00 Build 0)  -->
<svg version="1.1" id="Layer_1" xmlns="http://www.w3.org/2000/svg" xmlns:xlink="http://www.w3.org/1999/xlink" x="0px" y="0px"
	 viewBox="0 0 720 720" style="enable-background:new 0 0 720 720;" xml:space="preserve">
<style type="text/css">
	.st0{fill:#FFFFFF;stroke:#EEEEEE;stroke-miterlimit:10;}
	.st1{font-family:'MyriadPro-Bold';}
	.st2{font-size:40.5406px;}
	.st3{fill:none;stroke:#C90000;stroke-width:10;stroke-miterlimit:10;stroke-dasharray:23,11;}
	.st4{fill:none;}
	.st5{fill:#F5F5F5;}
	.st6{enable-background:new    ;}
	.st7{fill:none;stroke:#FAB600;stroke-width:1.5;stroke-miterlimit:10;}
	.st8{fill:none;stroke:#E30613;stroke-width:1.2;}
	.st9{font-family:'MyriadPro-Regular';}
	.st10{font-size:35px;}
</style>
<g>
	<path class="st0" d="M-1,671.1h565.8c17.6,0,31.6-15,31.6-33.2V70H-1V671.1z"/>
	<g>
		<text transform="matrix(1 0 0 1 390.0376 141.9381)" class="st1 st2"> </text>
	</g>
	<g>
		<line class="st3" x1="115.3" y1="214" x2="182.2" y2="214"/>
		<rect x="203.4" y="175.6" class="st4" width="119.7" height="24.8"/>
		<line class="st3" x1="114.7" y1="136" x2="181.4" y2="136"/>
		<line class="st3" x1="104.1" y1="202.9" x2="104.1" y2="137.5"/>
		<line class="st3" x1="182.7" y1="203.9" x2="182.7" y2="137"/>
	</g>
	<path class="st5" d="M597.4,297.3h105.5c9.2,0,16.8-8.6,16.8-19V89.9c0-11.1-7.8-19.9-17.6-19.9h-105v227.3H597.4z"/>
	<rect x="605.2" y="91.8" class="st4" width="95.7" height="168.8"/>
	<g class="st6">
		<path d="M699.4,99.6v6.4h-18.5v9.2h-5.4V99.6H699.4z"/>
		<path d="M685.2,136.1v-8.6h-4.4v9.6h-5.2v-16h23.9v15.5h-5.2v-9.1h-3.8v8.6H685.2z"/>
		<path d="M676.6,164.1c-0.6-1.8-1.3-5.1-1.3-8.3c0-4.7,1.2-7.9,3.2-10c2.1-2.2,5.2-3.4,8.6-3.4c8.3,0,12.5,6.2,12.5,14
			c0,3.2-0.6,5.7-1.2,6.9l-5.1-1.3c0.6-1.3,1-3,1-5.7c0-3.9-2.1-7.2-6.9-7.2c-4.5,0-7.1,2.9-7.1,6.8c0,0.9,0.1,1.7,0.2,2h4.1v-3.2h5
			v9.4H676.6z"/>
		<path d="M685.2,185.8v-8.6h-4.4v9.6h-5.2v-16h23.9v15.5h-5.2v-9.1h-3.8v8.6H685.2z"/>
		<path d="M675.5,193.2h23.9v7.5l-7.3,3.8c-2.4,1.3-5.6,2.7-8.4,3.8v0.1c3.2-0.4,6.5-0.5,10-0.5h5.7v5.8h-23.9V207l7.9-4.1
			c2.5-1.3,5.7-2.9,8.6-4v-0.1c-3.2,0.2-6.8,0.2-10.7,0.2h-5.9v-5.8L675.5,193.2L675.5,193.2z"/>
		<path d="M699.1,220.9c0.4,2.1,0.5,4.8,0.5,7.6c0,4.6-0.7,7.5-2.4,9.8c-1.8,2.6-4.8,4.3-9.2,4.3c-4.9,0-8-1.8-9.9-4.1
			c-2.1-2.6-2.9-6.6-2.9-11.2c0-3.1,0.2-5.1,0.4-6.4L699.1,220.9L699.1,220.9z M680.3,227.3c-0.1,0.3-0.1,0.9-0.1,1.3
			c-0.1,4.1,2.2,7.2,7.6,7.2c4.7,0,6.9-2.8,6.9-6.6c0-1-0.1-1.6-0.1-1.9H680.3z"/>
		<path d="M685.7,261.8v-8.6h-4.4v9.6h-5.2v-16H700v15.5h-5.2v-9.1H691v8.6H685.7z"/>
	</g>
	<g id="Velo_">
		<g id="Vélo_2">
			<path class="st7" d="M207.2,354.5l-0.9,2.1l-2.6-1l-1.1-0.8l-4.9-4.9c-0.1-0.2-0.1-0.5-0.2-0.7c0-0.8,0.2-1.6,0.7-2.3
				c0.5-0.7,0.9-0.7,1.2-1.3c0.7-1.3-0.5-3.1-0.6-3.3c-0.4-0.6-1-1.2-1.7-1.5l-6,4.3l-3.1-1c-0.1-0.6-0.1-1.2-0.2-1.8l-1.1-1.1
				l-1.1-1l-0.3-0.6l-0.5-0.7l-0.4-0.5l-0.4-0.3l-1.2-0.3l-1.5-0.3l-0.7-0.2c-0.4,0.4-1,0.6-1.6,0.6c-0.2,0-0.3-0.1-0.9-0.3
				c-1.3-0.5-1.3-0.4-2-0.7c-0.3-0.2-0.6-0.3-1-0.4c-0.9-0.2-1-0.1-1.8-0.3c-0.4-0.1-0.4-0.2-0.8-0.2c-0.5-0.1-1-0.1-1.5,0
				c-0.1,0-0.2,0.1-0.3,0.1c-0.1,0.1-0.2,0.2-0.4,0.2c-0.1,0.1-0.2,0.2-0.3,0.3c-0.2,0.1-0.2,0.2-0.3,0.2c-0.2,0.1-1-0.4-3.6-2.9"/>
			<path class="st7" d="M99.3,328.6c0.6,0.4,1.3,0.9,1.9,1.3l-0.1,0.4c0.1,0.1,0.2,0.2,0.3,0.3c0.2,0.1,0.3,0.2,0.5,0.3
				c0.2,0.1,0.4,0.3,0.6,0.4l2.4,0.4l0.7,0.4l1.8,0.1l1,0.7l0.5-0.6l2.5-0.3l1-0.3l1-0.5c0.4-0.4,0.8-0.8,1.2-1.2
				c0.4-0.3,0.8-0.5,1.3-0.7c0.3-0.2,0.6-0.3,0.8-0.3l0.6,0.2l0.5-0.3l1,0.1l1.3,0.5l0.9-0.3c0.1,0.1,0.3,0.3,0.5,0.5
				c0.4,0.4,0.5,0.5,0.6,0.5c0.2,0,0.3-0.1,0.5-0.2c0.3-0.1,0.6-0.1,1-0.1c0.4,0,0.8,0,1.2,0.1c0.1,0,0.1,0,0.6,0.2
				c0.5,0.1,0.6,0.1,1.4,0.4l0.8,0.2l0.8,0.7l0.4-0.8l1.3,0.3l1.6-1.1l3.7-3.2l0.9,1.3l-0.4,0.9l0.1,0.3c0.3-0.1,0.6-0.1,0.9-0.1
				c0.1,0,0.1,0,0.2,0h0.1c0.2,0,0.3-0.1,0.5-0.2c0.5-0.2,0.7-0.1,1-0.3c0.4-0.2,0.3-0.5,0.7-0.8c0.3-0.2,0.6-0.2,1.3-0.3
				c0.6-0.1,1.2-0.1,1.7,0c0.2,0.1,0.5,0.1,0.7,0.1c0.3,0,0.9,0,1.3-0.3c0.2-0.2,0.3-0.4,0.5-0.4c0,0,0.2,0,0.3,0c0,0,0.1,0.1,0,0.3
				c-0.1,0.3-0.2,0.5-0.2,0.6c0,0.1,0.1,0.1,0.2,0.1c0.1,0,0.2,0.1,0.3,0c0.1,0,0.1-0.1,0.2-0.1c0.2-0.1,0.4,0.2,0.9,0.5
				c0.5,0.3,0.8,0.3,0.9,0.5c0,0.1-0.1,0.2-0.2,0.3l0,0l1.3,0.6c0.2,0.1,0.4,0.1,0.6,0.1c0.3,0,0.4-0.1,0.6,0
				c0.2,0.1,0.2,0.3,0.4,0.3c0.2,0.1,0.3-0.1,0.5,0c0.1,0,0.2,0.2,0.3,0.3c0.2,0.1,0.5,0.2,0.7,0.1c0.7,0,0.9,0.7,1.9,1.1
				c0.4,0.2,0.8,0.3,1.2,0.3c0.9-0.2,1.4-0.1,1.7,0.1c0.1,0.1,0.3,0.2,0.4,0.3c0.4,0.2,0.7,0.2,1.2,0.3c0.9,0.1,0.9,0.4,1.8,0.5
				c0.3,0,0.6,0,0.9,0c0.4,0.1,0.9,0.2,1.3,0.5c0.2,0.1,0.5,0.3,0.7,0.5l0.3,0.7l0.1,0.3v0.1l0.1,0.1l0.1,0.1l1.5-0.1"/>
			<path class="st7" d="M165,335.3c0.1-0.6,0.1-1.1,0.1-1.7c0-1.4-0.1-1.2,0-1.5c0.1-1,0.5-1,0.5-1.8c0-0.6-0.3-0.8-0.4-1.8
				c-0.1-0.3,0-0.5,0.1-0.8c0.2-0.3,0.6-0.3,1-0.3c0.5,0,0.9-0.1,1.2,0.3c0.1,0.1,0.2,0.2,0.3,0.4c0.2,0.6-0.6,1.1-0.7,2.1
				c-0.1,1.3,0.3,1.7-0.1,2.4c-0.2,0.4-0.4,0.4-0.7,0.9c-0.2,0.4-0.3,0.9-0.3,1.3c-0.1,0.8-0.1,1.7-0.1,2.5c0.1,1.7,0.1,2.6,0.5,2.9
				c0.3,0.1,0.5,0.4,0.6,0.6c0,0.1,0.1,0.4-0.1,0.5c-0.2,0.1-0.5-0.3-1.3-0.4c-0.1,0-0.3-0.1-0.4-0.1c-0.1-0.2-0.2-0.5-0.1-0.7
				c0.1-0.3,0.1-0.5,0.3-0.7c0.2-0.7-0.7-1.2-0.8-2.4C164.7,336.4,164.9,336.5,165,335.3z"/>
			<path class="st7" d="M103.6,331.6c-0.5-1.6-0.7-1.7-0.7-2.4c0-0.4,0.1-0.7,0.2-1c0.1-0.4,0.2-0.6,0.2-1c0.1-0.2,0.1-0.5,0-0.7
				c-0.1-0.5-0.4-1-0.9-1.3c-0.2-0.2-0.5-0.3-0.7-0.4l-0.5-1.1c0.1-0.2,0.2-0.4,0.3-0.7c-0.3-0.3-0.6-0.7-0.8-1
				c-0.3-0.4-0.4-0.6-0.8-1.2c-0.2-0.3-0.4-0.5-0.5-0.7c0.1-0.1,0.5-0.7,0.3-1.3c-0.1-0.3-0.3-0.5-0.6-0.6c-0.5-0.4-0.8-0.3-1.1-0.6
				c-0.4-0.3-0.6-0.6-0.7-1.1l0.7-2.2c-0.5-0.6-0.7-1.3-0.9-2c0-0.5-0.2-0.9-0.4-1.4c-0.1-0.2-0.3-0.3-0.4-0.5l-0.2-0.1l-1.4,0.5
				l-1.3-1.2c-0.1-0.3-0.1-0.6-0.1-1c0-0.5,0-0.7,0.2-0.9c0.1-0.1,0.2-0.1,0.9-0.2c0.3-0.1,0.6-0.2,0.8-0.3c0.1-0.1,0.3-0.2,0.5-0.3
				l0.3-0.1l0.9-1.5l-0.9-1l5.3-3.7l1.5-0.4c0-0.4-0.2-0.7-0.5-0.9c-1-0.6-3.1,1.5-3.5,1c-0.2-0.2,0.1-0.6-0.2-1.3
				c-0.1-0.1-0.1-0.3-0.2-0.4c-0.1-0.3-0.1-0.6-0.1-0.9c0-0.6-0.6-0.7-1.1-1.5c-0.3-0.4-0.5-0.9-0.6-1.3l-0.7,0.2
				c-0.2-0.4-0.4-0.7-0.6-1.1c-0.1-0.3-0.3-0.7-0.3-1l-2.5-1.7c-0.3-0.6-0.6-1.3-1-1.9c-0.1,0.1-0.4,0.2-0.5,0.1
				c-0.1-0.1-0.1-0.2-0.1-0.5c0-0.1,0-0.1,0-0.2c0-0.1,0-0.2-0.1-0.2c-0.1-0.1,0-0.2,0-0.6c0-0.2,0-0.3,0-0.5c0-0.3-0.2-0.4-0.3-0.6
				c-0.1-0.1-0.1-0.3-0.2-0.4c-0.1-0.2-0.2-0.5-0.3-0.7c0-0.4,0.5-0.5,0.8-0.9s0.3-0.9-0.2-2.2"/>
		</g>
	</g>
	<path id="Tram_train" class="st8" d="M108.6,519.8l2.2-2.5l5.8-1.1l3.6,0.3c0.4-0.2,0.7-0.5,1-0.8c0.6-0.7,0.6-1.3,1.2-1.9
		c0.3-0.3,0.7-0.5,1.2-0.6l4.1-0.2l3.2-2.3l2.9-0.9l15.1-8.2c0.4-0.4,1.2-0.9,2-1.5c0.9-0.6,1.2-0.8,1.8-1.3
		c0.5-0.4,1.2-0.9,2.1-1.7l0.8-0.1c0.7-1.1,1.6-2,2.5-2.9c0.7-0.7,1.5-1.4,1.4-2.3c0-0.2-0.1-0.4-0.2-0.6l4.8-2.8
		c0.6-0.2,1.1-0.5,1.6-0.8c1.3-0.8,2.5-1.6,3.7-2.6c0.8-0.5,0.6-0.4,2-1.4s2.5-1.7,3.2-2.2l2.8,0.4l1.6-0.5c1.9-0.4,3.8-0.8,5.8-1.3
		l1.5-0.4c0.1,0,0.3-0.1,0.3-0.3l0,0c0.1-0.3-0.3-0.9-0.3-0.9c-0.5-0.6-1-1.1-1.5-1.6l-2.3-0.7c-2.9-2.6-5.4-4.6-7.1-5.9
		c-2.8-2.2-5.6-4.5-8.1-7c-0.4-0.4-1-1-1.7-1.7c-1.9-1.9-3.6-4-5.2-6.1c-1.4-1.8-2.6-3.7-3.7-5.7l-2-4.4l0.2-3.9l1-1.8
		c2.6-2.8,5.1-5.6,7.7-8.4c0.7-0.5,1.4-1.1,2-1.8c0.6-0.6,1-1.4,1.4-2.1c0.9,0,1.9-0.2,2.6-0.8c1.2-0.9,2.5-1.9,3.7-2.8
		c2.5-2,4.8-3.9,7-5.9l16.1-7.5l5.9,1.5"/>
	<g id="Broadway_">
		<path class="st8" d="M109.9,424.3l0.2-0.1c-0.5-0.4-1.1-0.8-1.8-1.2c-0.3-0.2-0.5-0.4-0.8-0.5l-1.6,1.1l-8.5-9.7
			c-0.7-0.2-1.3-0.6-1.9-1c-0.7-0.4-1.3-1-1.7-1.7c-0.4-0.6-0.2-0.6-1-2.6c-0.3-0.8-0.6-1.5-1-2.2c-0.3-0.7-0.6-1.1-0.7-1.3
			c-0.5-0.8-1.6-2.7-3.7-6.9"/>
		<path class="st8" d="M203.2,410.7l-6-1.5h-1c-8.7,4.1-15,7.2-16,7.7c-0.4,0.2-0.8,0.4-1.2,0.7c-0.5,0.3-0.4,0.4-1.4,1.2
			c-0.5,0.4-0.9,0.8-1.3,1.2c-0.2,0.2-0.3,0.3-0.4,0.5c-0.2,0.3-0.4,0.5-0.7,0.7c-0.4,0.3-1.2,0.9-2.9,2.4c-0.1,0.1-0.5,0.5-2.4,1.8
			c-0.3,0.2-0.6,0.4-1,0.6c-0.4,0.2-0.8,0.3-1.2,0.4h-0.1l-0.8-0.1l-1.7,2.5l-2.8-2.7l-1.4-0.4l-1.5-0.4l-1.3-0.4l-0.8-0.2
			c-0.2-0.1-0.2-0.1-0.4-0.1c-0.8-0.2-1.6-0.2-2.4-0.2c-0.5-0.1-1.1-0.1-1.6,0.1c-0.1,0.1-0.3,0.1-0.4,0.2c-0.2,0.2-0.5,0.3-0.9,0.3
			c-0.5,0-0.8-0.3-1.6-1.1c-0.2-0.2-0.5-0.5-0.7-0.8l-1.5,0.6l-2.7-1l-1.6-0.2l-1.1,0.7l-1.2-0.5c-0.5,0.2-0.9,0.4-1.4,0.6
			c-0.9,0.4-1.7,0.8-2.5,1.3c-0.9,0.6-1.7,1.3-2.4,2.2l-0.1,0.1l-2.1,1.1l-2.1,0.6l-4.8,0.6l-1.1,1.3l-2.2-1.6l-3.4-0.2l-1.4-0.7
			l-4.8-0.8c-0.4-0.4-0.8-0.7-1.3-0.9l-0.4-0.2c-0.2-0.1-0.4-0.2-0.7-0.3c-0.4-0.3-0.8-0.6-1-1.1l0.1-0.1"/>
	</g>
	<g id="Vélo_">
		<path class="st7" d="M110.7,603.4c-0.1-0.6-0.2-1.5,0.3-2c0.5-0.5,1.4-0.4,2.7-0.2c1.5,0.2,2.9,0.2,4.4,0.1l5.1-0.6l2-0.6l1.5-1.4
			l0.6,1l2-1.6l2.2-1.9l1.3-1.1l-0.6-0.6l1.9-1.7c0.1-0.2,0.2-0.4,0.4-0.6c0.2-0.2,0.4-0.4,0.6-0.6l0.2-0.2c0.1-0.1,0.2-0.1,0.3-0.2
			c0.1-0.1,0.3-0.2,0.4-0.4c0.2-0.2,0.3-0.3,0.4-0.5c0.2-0.3,0.8-1,1.9-2.4"/>
		<path class="st7" d="M139,587.5c0.1-0.2,0.1-0.4,0.2-0.6c0.1-0.4,0.1-0.7,0.1-1.1c-0.1-0.3-0.2-0.6-0.2-0.8
			c-0.2-0.8-0.4-1.5-0.6-2.2l-0.9-0.3c-0.3-1.3-0.6-2.7-1.1-4c-0.6-1.8-1.1-3.4-2.1-5.1c-0.5-0.9-1.6-1.9-3.2-4.5
			c-0.9-1.4-1.6-2.4-2-3c-0.3-0.4-0.6-0.9-0.8-1.4c-0.2-0.5-0.3-1.1-0.3-1.7c0-1.8,0.6-3.1,1-3.8c0.3-0.6,0.7-1.2,1.1-1.7
			c2.1-2.7,6.4-6.8,7.1-7.5c0-0.2,0-0.5,0-0.7"/>
		<path class="st7" d="M191.4,660.4c-1-0.7-2.5-1.8-4.4-3.2c-1.1-0.9-4.1-3.2-12.5-11.3c-3.5-3.4-4.1-4.1-4.7-4.7
			c-1.7-2-2-2.8-5.2-7.6c-1.1-1.7-3.1-4.7-5.7-8.2c-3.1-4.3-2.8-3.4-4.2-5.6c-1.5-2.3-2.9-4.8-6.1-9.9c-0.4-0.7-0.9-1.4-1.4-2
			c-0.6-0.7-1.2-1.4-1.9-2c-0.9-0.8-1.8-1.6-2.8-2.3c-1.3-0.9-3.1-2.4-5.8-5l-0.4-0.8l0.7-1.2l-0.9-1.4l-0.6-1.3l0-0.4l-0.7-0.1
			l-0.9-0.6"/>
	</g>
</g>
<rect x="212.6" y="158.7" class="st4" width="121.5" height="33.7"/>
<text transform="matrix(1 0 0 1 212.5744 183.5519)" class="st9 st10">Photos</text>
<rect x="216.4" y="314.9" class="st4" width="239.5" height="33.7"/>
<text transform="matrix(1 0 0 1 216.3925 339.7827)" class="st9 st10">By-Pass Escaut</text>
<rect x="216.4" y="446.7" class="st4" width="121.5" height="33.7"/>
<text transform="matrix(1 0 0 1 216.3923 471.528)" class="st9 st10">Tram</text>
<rect x="218.7" y="563.1" class="st4" width="121.5" height="33.7"/>
<text transform="matrix(1 0 0 1 218.6902 587.9535)" class="st9 st10">Vélo</text>
</svg>
