<?xml version="1.0" encoding="iso-8859-1"?>
<!-- Generator: Adobe Illustrator 24.0.0, SVG Export Plug-In . SVG Version: 6.00 Build 0)  -->
<svg version="1.1" id="Calque_1" xmlns="http://www.w3.org/2000/svg" xmlns:xlink="http://www.w3.org/1999/xlink" x="0px" y="0px"
	 viewBox="0 0 1127.943 1040.922" style="enable-background:new 0 0 1127.943 1040.922;" xml:space="preserve">
<title>Echelle Carré Bleu_A</title>
<path id="Tram_train" style="fill:none;stroke:#E30613;stroke-width:1.2;" d="M495.781,635.15l3.75-4.25l9.92-1.79l6.18,0.56
	c0.657-0.354,1.24-0.829,1.72-1.4c1.06-1.26,1-2.28,2-3.22c0.563-0.51,1.254-0.856,2-1l7-0.28l5.46-3.93l5-1.54l25.72-14
	c0.76-0.6,2-1.52,3.45-2.62s2-1.41,3-2.22c0.85-0.64,2.08-1.61,3.53-2.87l1.43-0.17c1.251-1.789,2.66-3.463,4.21-5
	c1.16-1.14,2.58-2.37,2.44-3.94c-0.034-0.377-0.15-0.743-0.34-1.07l8.16-4.76c0.95-0.416,1.878-0.88,2.78-1.39
	c2.175-1.343,4.281-2.795,6.31-4.35c1.29-0.91,1-0.66,3.36-2.3s4.19-2.92,5.39-3.77l4.79,0.73l2.69-0.9
	c3.23-0.67,6.52-1.4,9.84-2.21l2.49-0.62c0.232-0.074,0.425-0.236,0.54-0.45l0,0c0.21-0.52-0.55-1.5-0.55-1.5
	c-0.786-0.949-1.649-1.832-2.58-2.64l-3.83-1.16c-5-4.36-9.17-7.74-12-10c-4.837-3.685-9.461-7.641-13.85-11.85
	c-0.74-0.72-1.75-1.72-2.92-2.95c-3.181-3.266-6.154-6.73-8.9-10.37c-2.3-3.095-4.414-6.324-6.33-9.67l-3.33-7.5l0.33-6.66
	l1.74-3.11c4.374-4.74,8.737-9.483,13.09-14.23c1.258-0.873,2.4-1.901,3.4-3.06c0.95-1.101,1.769-2.309,2.44-3.6
	c1.607,0.063,3.189-0.408,4.5-1.34c2.08-1.54,4.2-3.15,6.33-4.83c4.24-3.35,8.18-6.7,11.83-10l27.34-12.83l10,2.5"/>
<g id="Broadway_">
	<path style="fill:none;stroke:#E30613;stroke-width:1.2;" d="M498.091,472.76l0.37-0.25c-0.93-0.7-1.92-1.4-3-2.1
		c-0.46-0.313-0.92-0.613-1.38-0.9l-2.76,1.8l-14.49-16.49c-1.156-0.424-2.249-1.003-3.25-1.72c-1.152-0.752-2.144-1.724-2.92-2.86
		c-0.62-1-0.34-1-1.63-4.34c-0.46-1.289-1.001-2.549-1.62-3.77c-0.57-1.11-1.07-1.9-1.22-2.13c-0.9-1.44-2.65-4.55-6.33-11.71"/>
	<path style="fill:none;stroke:#E30613;stroke-width:1.2;" d="M656.521,449.69l-10.15-2.62h-1.63c-14.72,7-25.45,12.23-27.2,13.1
		c-0.692,0.338-1.36,0.722-2,1.15c-0.85,0.59-0.75,0.66-2.34,2c-0.782,0.615-1.52,1.283-2.21,2c-0.256,0.281-0.493,0.578-0.71,0.89
		c-0.322,0.46-0.734,0.852-1.21,1.15c-0.72,0.55-2.07,1.57-5,4c-0.13,0.12-0.91,0.77-4,3c-0.529,0.394-1.099,0.729-1.7,1
		c-0.665,0.297-1.363,0.512-2.08,0.64h-0.14l-1.38-0.19l-2.89,4.19l-4.75-4.6l-2.45-0.68l-2.53-0.68l-2.27-0.63l-1.36-0.39
		c-0.34-0.1-0.39-0.12-0.61-0.17c-1.318-0.256-2.657-0.386-4-0.39c-0.926-0.121-1.865-0.087-2.78,0.1
		c-0.227,0.096-0.445,0.213-0.65,0.35c-0.417,0.313-0.929,0.472-1.45,0.45c-0.81,0-1.39-0.49-2.71-1.82
		c-0.42-0.42-0.83-0.84-1.23-1.28l-2.57,1l-4.61-1.64l-2.75-0.28l-1.92,1.14l-2.12-0.86c-0.79,0.31-1.59,0.64-2.36,1
		c-1.457,0.635-2.852,1.402-4.17,2.29c-1.493,1.041-2.839,2.279-4,3.68l-0.12,0.15l-3.5,1.85l-3.55,1l-8.09,1l-1.81,2.23l-3.73-2.64
		l-5.7-0.4l-2.46-1.24l-8.08-1.31c-0.643-0.614-1.358-1.148-2.13-1.59l-0.69-0.33c-0.386-0.16-0.758-0.354-1.11-0.58
		c-0.7-0.477-1.301-1.085-1.77-1.79l0.24-0.16"/>
</g>
</svg>
