<?xml version="1.0" encoding="iso-8859-1"?>
<!-- Generator: Adobe Illustrator 24.0.0, SVG Export Plug-In . SVG Version: 6.00 Build 0)  -->
<svg version="1.1" id="Calque_1" xmlns="http://www.w3.org/2000/svg" xmlns:xlink="http://www.w3.org/1999/xlink" x="0px" y="0px"
	 viewBox="0 0 1127.943 1040.922" style="enable-background:new 0 0 1127.943 1040.922;" xml:space="preserve">
<title>Echelle Carré Bleu_A</title>
<g id="V&#xE9;lo_">
	<path style="fill:none;stroke:#FAB600;stroke-width:1.5;stroke-miterlimit:10;" d="M443.111,559.73c-0.61-3-1.08-7.89,1.67-10.66
		s7.5-2.16,14.33-1.34c7.858,0.924,15.789,1.038,23.67,0.34l27.25-3.17l10.75-3.5l7.88-7.76l3.12,5.26l11-8.75l12-10.5l7.25-6
		l-3.25-3l10.15-9.06c0.557-1.119,1.227-2.178,2-3.16c0.884-1.109,1.891-2.116,3-3l1.09-0.82c0.533-0.287,1.038-0.621,1.51-1
		c0.765-0.607,1.439-1.321,2-2.12c0.91-1.29,1.49-1.84,1.92-2.43c1.09-1.52,4.08-5.43,10-13"/>
	<path style="fill:none;stroke:#FAB600;stroke-width:1.5;stroke-miterlimit:10;" d="M595.321,474.02c0.395-1.036,0.729-2.095,1-3.17
		c0.473-1.95,0.741-3.944,0.8-5.95c-0.45-1.48-0.89-3-1.33-4.5c-1.173-4.093-2.23-8.093-3.17-12l-4.83-1.75
		c-1.551-7.26-3.47-14.436-5.75-21.5c-3.2-9.91-5.88-18.22-11.25-27.75c-2.68-4.76-8.55-10.43-17-24c-4.73-7.59-8.37-12.75-11-16.25
		c-1.807-2.258-3.242-4.79-4.25-7.5c-0.984-2.899-1.49-5.939-1.5-9c-0.18-9.44,3.44-16.71,5.25-20.25c1.679-3.28,3.69-6.379,6-9.25
		c11.42-14.29,34.37-36.51,38.25-40.25c-0.08-1.33-0.17-2.67-0.25-4"/>
	<path style="fill:none;stroke:#FAB600;stroke-width:1.5;stroke-miterlimit:10;" d="M877.951,866.9
		c-5.18-3.56-13.53-9.46-23.5-17.17c-6-4.63-22.25-17.41-67.34-60.66c-19.13-18.36-22.35-22-25.33-25.5c-9.27-11-10.69-15-28-41.17
		c-6.06-9.17-16.82-25.37-30.67-44.33c-16.74-22.93-14.85-18.19-22.66-30c-8.34-12.6-15.71-25.88-32.67-53.34
		c-2.309-3.833-4.871-7.508-7.67-11c-3.122-3.85-6.517-7.469-10.16-10.83c-4.75-4.425-9.82-8.493-15.17-12.17
		c-6.76-4.69-16.93-12.72-31.28-27.21l-2.18-4.12l3.83-6.33l-5-7.5l-3-6.84l-0.16-2.33l-3.67-0.5l-4.83-3.5"/>
</g>
</svg>
